<?xml version="1.0" encoding="iso-8859-1"?>
<!-- Generator: Adobe Illustrator 16.0.0, SVG Export Plug-In . SVG Version: 6.00 Build 0)  -->
<!DOCTYPE svg PUBLIC "-//W3C//DTD SVG 1.1//EN" "http://www.w3.org/Graphics/SVG/1.1/DTD/svg11.dtd">
<!--<svg version="1.1" id="Capa_1" xmlns="http://www.w3.org/2000/svg" xmlns:xlink="http://www.w3.org/1999/xlink" x="0px" y="0px"
	 width="24px" height="24px" viewBox="0 0 24 24"
	 xml:space="preserve">
<g>
	<g>
		<path d="M98.098,48.141c0-5.988-4.873-10.862-10.861-10.862c-2.84,0-5.474,1.146-7.484,3.087c-7.403-4.9-17.43-8.024-28.53-8.421
			l6.063-19.172l16.414,3.866c-0.004,0.081-0.024,0.156-0.024,0.237c0,4.898,3.983,8.883,8.886,8.883
			c4.896,0,8.877-3.984,8.877-8.883c0-4.896-3.981-8.879-8.877-8.879c-3.761,0-6.965,2.354-8.26,5.658L56.609,9.492
			c-0.77-0.188-1.56,0.259-1.799,1.021L48.047,31.89c-11.607,0.141-22.122,3.281-29.852,8.32c-1.999-1.843-4.604-2.932-7.34-2.932
			C4.869,37.278,0,42.152,0,48.14c0,3.877,2.083,7.419,5.378,9.352c-0.207,1.147-0.346,2.309-0.346,3.49
			C5.032,77.04,24.685,90.1,48.844,90.1c24.16,0,43.814-13.062,43.814-29.118c0-1.113-0.116-2.207-0.301-3.289
			C95.875,55.82,98.098,52.205,98.098,48.141z M82.561,11.036c3.219,0,5.836,2.619,5.836,5.84c0,3.222-2.617,5.843-5.836,5.843
			c-3.223,0-5.847-2.621-5.847-5.843C76.714,13.655,79.338,11.036,82.561,11.036z M3.041,48.141c0-4.312,3.505-7.821,7.814-7.821
			c1.759,0,3.446,0.62,4.816,1.695c-4.542,3.504-7.84,7.729-9.467,12.381C4.25,52.945,3.041,50.643,3.041,48.141z M48.844,87.062
			c-22.481,0-40.771-11.697-40.771-26.078c0-14.378,18.29-26.08,40.771-26.08c22.482,0,40.775,11.701,40.775,26.08
			C89.619,75.363,71.326,87.062,48.844,87.062z M91.574,54.625c-1.576-4.677-4.836-8.929-9.351-12.46
			c1.396-1.174,3.147-1.846,5.011-1.846c4.314,0,7.82,3.51,7.82,7.821C95.056,50.806,93.723,53.197,91.574,54.625z"/>
		<path d="M40.625,55.597c0-3.564-2.898-6.466-6.462-6.466c-3.564,0-6.466,2.899-6.466,6.466c0,3.562,2.901,6.462,6.466,6.462
			C37.727,62.059,40.625,59.16,40.625,55.597z"
			/>
		<path d="M63.961,49.131c-3.562,0-6.462,2.899-6.462,6.466c0,3.562,2.897,6.462,6.462,6.462c3.562,0,6.461-2.897,6.461-6.462
			C70.422,52.031,67.523,49.131,63.961,49.131z" />
		<path d="M62.582,72.611c-2.658,2.658-7.067,3.951-13.48,3.951c-0.018,0-0.033,0.01-0.054,0.01c-0.019,0-0.035-0.01-0.054-0.01
			c-6.413,0-10.822-1.293-13.479-3.951c-0.594-0.594-1.557-0.594-2.15,0c-0.594,0.596-0.594,1.557-0.002,2.149
			c3.258,3.259,8.37,4.841,15.631,4.841c0.019,0,0.035-0.011,0.054-0.011c0.021,0,0.036,0.011,0.054,0.011
			c7.259,0,12.373-1.582,15.63-4.841c0.594-0.594,0.594-1.555,0-2.149C64.139,72.017,63.176,72.017,62.582,72.611z" />
	</g>
</g>
</svg>-->
<svg xmlns="http://www.w3.org/2000/svg" width="24" height="24" viewBox="0 0 24 24">
      <path 
        d="M14.238 15.348c.085.084.085.221 0 .306-.465.462-1.194.687-2.231.687l-.008-.002-.008.002c-1.036 0-1.766-.225-2.231-.688-.085-.084-.085-.221 0-.305.084-.084.222-.084.307 0 .379.377 1.008.561 1.924.561l.008.002.008-.002c.915 0 1.544-.184 1.924-.561.085-.084.223-.084.307 0zm-3.44-2.418c0-.507-.414-.919-.922-.919-.509 0-.923.412-.923.919 0 .506.414.918.923.918.508.001.922-.411.922-.918zm13.202-.93c0 6.627-5.373 12-12 12s-12-5.373-12-12 5.373-12 12-12 12 5.373 12 12zm-5-.129c0-.851-.695-1.543-1.55-1.543-.417 0-.795.167-1.074.435-1.056-.695-2.485-1.137-4.066-1.194l.865-2.724 2.343.549-.003.034c0 .696.569 1.262 1.268 1.262.699 0 1.267-.566 1.267-1.262s-.568-1.262-1.267-1.262c-.537 0-.994.335-1.179.804l-2.525-.592c-.11-.027-.223.037-.257.145l-.965 3.038c-1.656.02-3.155.466-4.258 1.181-.277-.255-.644-.415-1.05-.415-.854.001-1.549.693-1.549 1.544 0 .566.311 1.056.768 1.325-.03.164-.05.331-.05.5 0 2.281 2.805 4.137 6.253 4.137s6.253-1.856 6.253-4.137c0-.16-.017-.317-.044-.472.486-.261.82-.766.82-1.353zm-4.872.141c-.509 0-.922.412-.922.919 0 .506.414.918.922.918s.922-.412.922-.918c0-.507-.413-.919-.922-.919z"
        stroke="none"
        fill="#f03e3e"
      />
    </svg>
